<svg
    xmlns="http://www.w3.org/2000/svg"
    viewBox="0 0 24 24"
    id="vector">
    <path
        id="path"
        d="M 18.92 6.01 C 18.72 5.42 18.16 5 17.5 5 L 6.5 5 C 5.84 5 5.29 5.42 5.08 6.01 L 3 12 L 3 20 C 3 20.55 3.45 21 4 21 L 5 21 C 5.55 21 6 20.55 6 20 L 6 19 L 18 19 L 18 20 C 18 20.55 18.45 21 19 21 L 20 21 C 20.55 21 21 20.55 21 20 L 21 12 L 18.92 6.01 Z M 6.5 16 C 5.67 16 5 15.33 5 14.5 C 5 13.67 5.67 13 6.5 13 C 7.33 13 8 13.67 8 14.5 C 8 15.33 7.33 16 6.5 16 Z M 17.5 16 C 16.67 16 16 15.33 16 14.5 C 16 13.67 16.67 13 17.5 13 C 18.33 13 19 13.67 19 14.5 C 19 15.33 18.33 16 17.5 16 Z M 5 11 L 6.5 6.5 L 17.5 6.5 L 19 11 L 5 11 Z"
        fill="#1bb55c"/>
</svg>
